<mxfile host="65bd71144e">
    <diagram name="Página-1" id="iNaVJ4ki2ZXxPQHuFq8B">
        <mxGraphModel dx="1869" dy="703" grid="1" gridSize="10" guides="1" tooltips="1" connect="1" arrows="1" fold="1" page="1" pageScale="1" pageWidth="827" pageHeight="1169" math="0" shadow="0">
            <root>
                <mxCell id="0"/>
                <mxCell id="1" parent="0"/>
                <mxCell id="kQsGSucea-r5Y_LSZo7t-3" value="" style="edgeStyle=orthogonalEdgeStyle;rounded=0;orthogonalLoop=1;jettySize=auto;html=1;" parent="1" source="kQsGSucea-r5Y_LSZo7t-1" target="kQsGSucea-r5Y_LSZo7t-4" edge="1">
                    <mxGeometry relative="1" as="geometry">
                        <mxPoint x="-685" y="67.5" as="targetPoint"/>
                    </mxGeometry>
                </mxCell>
                <mxCell id="kQsGSucea-r5Y_LSZo7t-1" value="Em campo&lt;br&gt;" style="shape=umlActor;verticalLabelPosition=bottom;verticalAlign=top;html=1;outlineConnect=0;" parent="1" vertex="1">
                    <mxGeometry x="-810" y="37.5" width="30" height="60" as="geometry"/>
                </mxCell>
                <mxCell id="kQsGSucea-r5Y_LSZo7t-19" style="edgeStyle=orthogonalEdgeStyle;rounded=0;orthogonalLoop=1;jettySize=auto;html=1;entryX=0;entryY=0.5;entryDx=0;entryDy=0;" parent="1" source="kQsGSucea-r5Y_LSZo7t-4" target="kQsGSucea-r5Y_LSZo7t-14" edge="1">
                    <mxGeometry relative="1" as="geometry">
                        <Array as="points">
                            <mxPoint x="-580" y="67.5"/>
                            <mxPoint x="-580" y="125.5"/>
                        </Array>
                    </mxGeometry>
                </mxCell>
                <mxCell id="kQsGSucea-r5Y_LSZo7t-4" value="" style="verticalLabelPosition=bottom;verticalAlign=top;html=1;shadow=0;dashed=0;strokeWidth=1;shape=mxgraph.android.phone2;strokeColor=#c0c0c0;fillColor=#000000;" parent="1" vertex="1">
                    <mxGeometry x="-695" y="20" width="50" height="95" as="geometry"/>
                </mxCell>
                <mxCell id="kQsGSucea-r5Y_LSZo7t-8" style="edgeStyle=orthogonalEdgeStyle;rounded=0;orthogonalLoop=1;jettySize=auto;html=1;" parent="1" source="kQsGSucea-r5Y_LSZo7t-5" target="kQsGSucea-r5Y_LSZo7t-6" edge="1">
                    <mxGeometry relative="1" as="geometry"/>
                </mxCell>
                <mxCell id="kQsGSucea-r5Y_LSZo7t-5" value="Na sede&lt;br&gt;" style="shape=umlActor;verticalLabelPosition=bottom;verticalAlign=top;html=1;outlineConnect=0;" parent="1" vertex="1">
                    <mxGeometry x="-810" y="147.5" width="30" height="60" as="geometry"/>
                </mxCell>
                <mxCell id="kQsGSucea-r5Y_LSZo7t-18" style="edgeStyle=orthogonalEdgeStyle;rounded=0;orthogonalLoop=1;jettySize=auto;html=1;entryX=0;entryY=0.5;entryDx=0;entryDy=0;" parent="1" source="kQsGSucea-r5Y_LSZo7t-6" target="kQsGSucea-r5Y_LSZo7t-14" edge="1">
                    <mxGeometry relative="1" as="geometry">
                        <Array as="points">
                            <mxPoint x="-580" y="177.5"/>
                            <mxPoint x="-580" y="125.5"/>
                        </Array>
                    </mxGeometry>
                </mxCell>
                <mxCell id="kQsGSucea-r5Y_LSZo7t-6" value="" style="sketch=0;outlineConnect=0;gradientColor=none;fontColor=#545B64;strokeColor=none;fillColor=#FFFFFF;dashed=0;verticalLabelPosition=bottom;verticalAlign=top;align=center;html=1;fontSize=12;fontStyle=0;aspect=fixed;shape=mxgraph.aws4.illustration_desktop;pointerEvents=1" parent="1" vertex="1">
                    <mxGeometry x="-720" y="132.5" width="100" height="91" as="geometry"/>
                </mxCell>
                <mxCell id="kQsGSucea-r5Y_LSZo7t-22" value="" style="edgeStyle=orthogonalEdgeStyle;rounded=0;orthogonalLoop=1;jettySize=auto;html=1;entryX=0;entryY=0.5;entryDx=0;entryDy=0;" parent="1" source="kQsGSucea-r5Y_LSZo7t-14" target="kQsGSucea-r5Y_LSZo7t-21" edge="1">
                    <mxGeometry relative="1" as="geometry"/>
                </mxCell>
                <mxCell id="0ufJtWn4vhR0eOMiRvcI-3" style="edgeStyle=orthogonalEdgeStyle;rounded=0;orthogonalLoop=1;jettySize=auto;html=1;entryX=0;entryY=0.5;entryDx=0;entryDy=0;" parent="1" source="kQsGSucea-r5Y_LSZo7t-14" target="0ufJtWn4vhR0eOMiRvcI-4" edge="1">
                    <mxGeometry relative="1" as="geometry">
                        <mxPoint x="-360" y="27.5" as="targetPoint"/>
                    </mxGeometry>
                </mxCell>
                <mxCell id="0ufJtWn4vhR0eOMiRvcI-6" style="edgeStyle=orthogonalEdgeStyle;rounded=0;orthogonalLoop=1;jettySize=auto;html=1;" parent="1" source="kQsGSucea-r5Y_LSZo7t-14" target="0ufJtWn4vhR0eOMiRvcI-7" edge="1">
                    <mxGeometry relative="1" as="geometry">
                        <mxPoint x="-360" y="27.499999999999886" as="targetPoint"/>
                    </mxGeometry>
                </mxCell>
                <mxCell id="0ufJtWn4vhR0eOMiRvcI-10" style="edgeStyle=orthogonalEdgeStyle;rounded=0;orthogonalLoop=1;jettySize=auto;html=1;entryX=0;entryY=0.5;entryDx=0;entryDy=0;" parent="1" source="kQsGSucea-r5Y_LSZo7t-14" target="0ufJtWn4vhR0eOMiRvcI-9" edge="1">
                    <mxGeometry relative="1" as="geometry"/>
                </mxCell>
                <mxCell id="kQsGSucea-r5Y_LSZo7t-14" value="API&lt;br&gt;" style="whiteSpace=wrap;html=1;verticalAlign=top;strokeColor=#c0c0c0;shadow=0;dashed=0;strokeWidth=1;" parent="1" vertex="1">
                    <mxGeometry x="-540" y="20" width="120" height="210" as="geometry"/>
                </mxCell>
                <mxCell id="0ufJtWn4vhR0eOMiRvcI-17" style="edgeStyle=orthogonalEdgeStyle;rounded=0;orthogonalLoop=1;jettySize=auto;html=1;entryX=0;entryY=0.5;entryDx=0;entryDy=0;entryPerimeter=0;" parent="1" source="kQsGSucea-r5Y_LSZo7t-21" target="0ufJtWn4vhR0eOMiRvcI-21" edge="1">
                    <mxGeometry relative="1" as="geometry">
                        <mxPoint x="-170" y="93.5" as="targetPoint"/>
                    </mxGeometry>
                </mxCell>
                <mxCell id="kQsGSucea-r5Y_LSZo7t-21" value="Autenticação" style="whiteSpace=wrap;html=1;verticalAlign=top;strokeColor=#c0c0c0;shadow=0;dashed=0;strokeWidth=1;" parent="1" vertex="1">
                    <mxGeometry x="-360" y="50" width="120" height="30" as="geometry"/>
                </mxCell>
                <mxCell id="0ufJtWn4vhR0eOMiRvcI-15" style="edgeStyle=orthogonalEdgeStyle;rounded=0;orthogonalLoop=1;jettySize=auto;html=1;entryX=0;entryY=0.5;entryDx=0;entryDy=0;entryPerimeter=0;" parent="1" source="0ufJtWn4vhR0eOMiRvcI-4" target="0ufJtWn4vhR0eOMiRvcI-21" edge="1">
                    <mxGeometry relative="1" as="geometry">
                        <mxPoint x="-170" y="93.5" as="targetPoint"/>
                    </mxGeometry>
                </mxCell>
                <mxCell id="0ufJtWn4vhR0eOMiRvcI-4" value="Usuário" style="whiteSpace=wrap;html=1;verticalAlign=top;strokeColor=#c0c0c0;shadow=0;dashed=0;strokeWidth=1;" parent="1" vertex="1">
                    <mxGeometry x="-360" y="90" width="120" height="30" as="geometry"/>
                </mxCell>
                <mxCell id="0ufJtWn4vhR0eOMiRvcI-14" style="edgeStyle=orthogonalEdgeStyle;rounded=0;orthogonalLoop=1;jettySize=auto;html=1;entryX=0;entryY=0.5;entryDx=0;entryDy=0;entryPerimeter=0;" parent="1" source="0ufJtWn4vhR0eOMiRvcI-7" target="0ufJtWn4vhR0eOMiRvcI-21" edge="1">
                    <mxGeometry relative="1" as="geometry">
                        <mxPoint x="-170" y="93.5" as="targetPoint"/>
                    </mxGeometry>
                </mxCell>
                <mxCell id="0ufJtWn4vhR0eOMiRvcI-19" style="edgeStyle=orthogonalEdgeStyle;rounded=0;orthogonalLoop=1;jettySize=auto;html=1;" parent="1" source="0ufJtWn4vhR0eOMiRvcI-7" target="0ufJtWn4vhR0eOMiRvcI-18" edge="1">
                    <mxGeometry relative="1" as="geometry">
                        <Array as="points">
                            <mxPoint x="-150" y="148"/>
                            <mxPoint x="-61" y="148"/>
                        </Array>
                    </mxGeometry>
                </mxCell>
                <mxCell id="0ufJtWn4vhR0eOMiRvcI-7" value="Imóveis" style="whiteSpace=wrap;html=1;verticalAlign=top;strokeColor=#c0c0c0;shadow=0;dashed=0;strokeWidth=1;" parent="1" vertex="1">
                    <mxGeometry x="-360" y="132.5" width="120" height="30" as="geometry"/>
                </mxCell>
                <mxCell id="0ufJtWn4vhR0eOMiRvcI-13" style="edgeStyle=orthogonalEdgeStyle;rounded=0;orthogonalLoop=1;jettySize=auto;html=1;entryX=0;entryY=0.5;entryDx=0;entryDy=0;entryPerimeter=0;" parent="1" source="0ufJtWn4vhR0eOMiRvcI-9" target="0ufJtWn4vhR0eOMiRvcI-21" edge="1">
                    <mxGeometry relative="1" as="geometry">
                        <mxPoint x="-170" y="93.5" as="targetPoint"/>
                    </mxGeometry>
                </mxCell>
                <mxCell id="0ufJtWn4vhR0eOMiRvcI-20" style="edgeStyle=orthogonalEdgeStyle;rounded=0;orthogonalLoop=1;jettySize=auto;html=1;" parent="1" source="0ufJtWn4vhR0eOMiRvcI-9" target="0ufJtWn4vhR0eOMiRvcI-18" edge="1">
                    <mxGeometry relative="1" as="geometry"/>
                </mxCell>
                <mxCell id="0ufJtWn4vhR0eOMiRvcI-9" value="Quarteirões" style="whiteSpace=wrap;html=1;verticalAlign=top;strokeColor=#c0c0c0;shadow=0;dashed=0;strokeWidth=1;" parent="1" vertex="1">
                    <mxGeometry x="-360" y="170" width="120" height="30" as="geometry"/>
                </mxCell>
                <mxCell id="0ufJtWn4vhR0eOMiRvcI-18" value="" style="sketch=0;outlineConnect=0;fontColor=#232F3E;gradientColor=none;fillColor=#FFFFFF;strokeColor=none;dashed=0;verticalLabelPosition=bottom;verticalAlign=top;align=center;html=1;fontSize=12;fontStyle=0;aspect=fixed;pointerEvents=1;shape=mxgraph.aws4.opensearch_service_ultrawarm_node;" parent="1" vertex="1">
                    <mxGeometry x="-70" y="74" width="48" height="48" as="geometry"/>
                </mxCell>
                <mxCell id="0ufJtWn4vhR0eOMiRvcI-21" value="" style="outlineConnect=0;dashed=0;verticalLabelPosition=bottom;verticalAlign=top;align=center;html=1;shape=mxgraph.aws3.mysql_db_instance_2;fillColor=#999999;gradientColor=none;strokeColor=#000000;" parent="1" vertex="1">
                    <mxGeometry x="-150" y="52" width="60" height="63" as="geometry"/>
                </mxCell>
            </root>
        </mxGraphModel>
    </diagram>
</mxfile>